# xmcd
#
# Track frame offsets:
#	150
#	13949
#	30520
#	46424
#	62465
#	77449
#	94142
#	111154
#	127446
#	139839
#	155278
#	172406
#	188638
#	202339
#	217414
#	236896
#	253086
#	270692
#	290734
#	302646
#
# Disc length: 4301 seconds
#
# Revision: 1
# Processed by: cddbd v1.5.2PL0 Copyright (c) Steve Scherf et al.
# Submitted via: audiograbber 1.83.01
#
DISCID=3b10cb14
DTITLE=Various Artist - CDX 487
DYEAR=2009
DGENRE=Country
TTITLE0=The Band Perry - Hip to My Heart
TTITLE1=Jonathan Singleton - Look Who's Back In Love 
TTITLE2=Chris Young - The Man I Want To Be
TTITLE3=Lorrie Morgan - Leavin' On Your Mind 
TTITLE4=Burns and Poe - Don't Get No Better Than That 
TTITLE5=Robert Martin - I Know That She Can 
TTITLE6=Gary Raykin - I'll Be There For You 
TTITLE7=Jackie Arredondo - Insane
TTITLE8=Julie Ingram - Longshot Girl Part 2 
TTITLE9=The Springs - Save the Drama For Your Mama 
TTITLE10=Mike Aiken - Jagger and Jones
TTITLE11=Kaitlyn Maher - Away In a Manger 
TTITLE12=Julie Ingram - Best Christmas Yet
TTITLE13=Chester Lee and Seidina Reed - Even Santa Gets the Blues
TTITLE14=Michelle Prentice - Have Yourself A Merry Little Christmas
TTITLE15=Joe Louis Puerta - I'm Comin' Home For Christmas 
TTITLE16=Doug Wayne - That Star Still Shines 
TTITLE17=Larry Gatlin and the Gatlin Brothers - They Saw a King
TTITLE18=Julie Ingram - Christmas Kickoff
TTITLE19=Timothy Craig - One Small Miracle 
EXTD=
EXTT0=
EXTT1=
EXTT2=
EXTT3=
EXTT4=
EXTT5=
EXTT6=
EXTT7=
EXTT8=
EXTT9=
EXTT10=
EXTT11=
EXTT12=
EXTT13=
EXTT14=
EXTT15=
EXTT16=
EXTT17=
EXTT18=
EXTT19=
PLAYORDER=
